<svg xmlns="http://www.w3.org/2000/svg" viewBox="0 0 256 256" fill="#F3AD43">
  <g transform="translate(-12 -12)">
    <g>
      <path d="M140,12A128,128,0,1,0,268,140,128.145,128.145,0,0,0,140,12ZM54.479,131.1a22.894,22.894,0,0,0-4.6,3.166,21.051,21.051,0,0,0-7.01,12.974,20.137,20.137,0,0,1,11.6-12.989v33.9a20.5,20.5,0,0,1-3.273-1.73,19.959,19.959,0,0,1-8.332-11.261,21.059,21.059,0,0,0,7.01,12.976,23.166,23.166,0,0,0,4.6,3.166v3.056c-10.59-3.45-18.226-13-18.226-24.218s7.636-20.766,18.226-24.215V131.1Zm2.474,56.41V115.128c0-15.212,6.263-29.237,16.8-40.5.457,2.136.909,4.271,1.39,6.4l1.074,4.76a20.971,20.971,0,0,0,1.172,3.417A55.178,55.178,0,0,0,64.6,115.62a50.648,50.648,0,0,0-.749,8.4L63.78,132.2l-.143,16.351-.231,32.7-.043,8.176-.012,2.043c0,.681-.017,1.346.012,2.126A23.77,23.77,0,0,0,72.278,211.3,26.26,26.26,0,0,1,56.953,187.51Zm131.441,65.636a1.583,1.583,0,0,0-.076-.155l-.042-.065a31.791,31.791,0,0,0-7.538-8.151,40.552,40.552,0,0,0-9.493-5.356,46.586,46.586,0,0,0-6.2-1.985,7.149,7.149,0,0,1-.641,1.15,45.194,45.194,0,0,1,6.069,2.524,38.29,38.29,0,0,1,8.476,5.8,28.607,28.607,0,0,1,5.985,7.658,123.229,123.229,0,0,1-89.876,0,28.634,28.634,0,0,1,5.985-7.658,38.328,38.328,0,0,1,8.475-5.8,45.061,45.061,0,0,1,6.065-2.523,7.208,7.208,0,0,1-.642-1.15,46.515,46.515,0,0,0-6.19,1.984,40.634,40.634,0,0,0-9.494,5.356,31.738,31.738,0,0,0-7.557,8.187c-.027.045-.057.094-.08.142-.008.016-.01.029-.017.044a122.378,122.378,0,0,1-11.857-5.837c6.987-8.278,19.387-13.787,33.528-13.787h1.575a4.163,4.163,0,0,1,.328-.576,5.51,5.51,0,0,1-.71-2.6,4.03,4.03,0,0,1,.71-2.324,5.517,5.517,0,0,1-.71-2.606,4.021,4.021,0,0,1,.71-2.321,5.518,5.518,0,0,1-.71-2.607,4.027,4.027,0,0,1,.71-2.323,6.022,6.022,0,0,1-.575-1.528l2.623.005a3.971,3.971,0,0,0,.521,1A10.551,10.551,0,0,0,120.379,220a27.334,27.334,0,0,0,6.192,2.965A38.446,38.446,0,0,0,140,224.907a38.52,38.52,0,0,0,13.428-1.948,27.316,27.316,0,0,0,6.192-2.965,10.544,10.544,0,0,0,2.628-2.36,3.931,3.931,0,0,0,.521-.992l2.624-.005a5.968,5.968,0,0,1-.576,1.527,4.014,4.014,0,0,1,.71,2.322,5.452,5.452,0,0,1-.71,2.607,4.014,4.014,0,0,1,.71,2.321,5.455,5.455,0,0,1-.71,2.607,4.037,4.037,0,0,1,.71,2.323,5.451,5.451,0,0,1-.709,2.6,4.022,4.022,0,0,1,.328.576h1.575c14.144,0,26.544,5.509,33.528,13.787A122.531,122.531,0,0,1,188.394,253.146Zm-37.278-34.012a41.95,41.95,0,0,1-22.235,0,33.018,33.018,0,0,1-6.295-2.486h.612a32.8,32.8,0,0,0,3.373,1.381A38.447,38.447,0,0,0,140,219.974a38.427,38.427,0,0,0,13.428-1.949,32.265,32.265,0,0,0,3.365-1.376l.619,0A33.01,33.01,0,0,1,151.116,219.134Zm8.252-1.9c.337-.009.768.125.6.352-1.443,1.941-9.746,4.962-12.1,4.4-.271-.064-.03-.445.236-.652Zm-27.474,4.1c.263.207.5.588.234.652-2.354.56-10.656-2.461-12.1-4.4-.168-.227.262-.36.6-.352ZM203.4,208.673a19.476,19.476,0,0,1-6.687,2.76,19.164,19.164,0,0,1-3.6.386l-4.057,0-98.1,0-4.055,0a19.332,19.332,0,0,1-19.074-18.393c-.03-.58-.024-1.278-.029-1.962l-.011-2.043-.043-8.176-.232-32.7L67.363,132.2l-.071-8.175a50.339,50.339,0,0,1,.528-7.879A52.046,52.046,0,0,1,78.695,91.658a20.334,20.334,0,0,0,6.57,6.491,19.543,19.543,0,0,0,9.676,2.809,18.48,18.48,0,0,0,9.469-2.407,18.818,18.818,0,0,1-17.752-2.48A17.427,17.427,0,0,1,81.1,89.2a17.638,17.638,0,0,1-1.313-4.178l-.761-4.736c-1.018-6.369-2.161-12.715-3.261-19.068-.853-4.521-1.682-9.047-2.534-13.567,3.437,2.1,6.872,4.212,10.349,6.254,5.058,3,10.106,6.017,15.218,8.929l7.571,4.354a18.035,18.035,0,0,1,5.693,5.8,18.875,18.875,0,0,1,1.516,16.438,18.846,18.846,0,0,0,.537-17.553A19.226,19.226,0,0,0,112.08,68.6,86.07,86.07,0,0,1,123.8,65.41,91.88,91.88,0,0,1,140,63.594a92.272,92.272,0,0,0-16.332,1.075A86.052,86.052,0,0,0,111.3,67.613a20.914,20.914,0,0,0-3.135-2.987c-.683-.522-1.271-.9-1.882-1.318l-1.835-1.226-3.677-2.439c-1.1-.738-2.215-1.458-3.323-2.187a100.2,100.2,0,0,1,85.093,0c-1.107.729-2.221,1.448-3.322,2.187l-3.678,2.439-1.835,1.226c-.609.421-1.2.8-1.882,1.318A21.129,21.129,0,0,0,168.7,67.61a86.372,86.372,0,0,0-12.366-2.944A92.46,92.46,0,0,0,140,63.594a91.893,91.893,0,0,1,16.2,1.819,86.15,86.15,0,0,1,11.72,3.187,19.184,19.184,0,0,0-2.034,3.273,18.837,18.837,0,0,0,.538,17.553,18.87,18.87,0,0,1,1.515-16.438,18.055,18.055,0,0,1,5.693-5.8l7.572-4.354c5.111-2.912,10.16-5.927,15.218-8.929,3.477-2.042,6.913-4.149,10.348-6.254-.853,4.521-1.682,9.046-2.534,13.567-1.1,6.354-2.244,12.7-3.261,19.068l-.762,4.735A17.713,17.713,0,0,1,198.9,89.2a17.415,17.415,0,0,1-5.556,6.87,18.815,18.815,0,0,1-17.753,2.48,18.481,18.481,0,0,0,9.47,2.407,19.549,19.549,0,0,0,9.674-2.809,20.332,20.332,0,0,0,6.569-6.488,52.062,52.062,0,0,1,10.87,24.479c.188,1.305.342,2.613.417,3.927.055.66.071,1.3.1,1.948l.018,2-.072,8.175-.143,16.35-.23,32.7-.044,8.176-.01,2.043c-.007.693,0,1.367-.029,1.952a19.234,19.234,0,0,1-.519,3.616A19.444,19.444,0,0,1,203.4,208.673Zm19.647-21.163a26.26,26.26,0,0,1-15.293,23.775,24.047,24.047,0,0,0,8.3-13.216,23.666,23.666,0,0,0,.591-4.47c.029-.779.012-1.467.012-2.137l-.01-2.043-.043-8.176-.231-32.7-.145-16.35-.07-8.175-.055-2.084c-.04-.715-.072-1.435-.142-2.132-.119-1.4-.318-2.8-.552-4.187A52.854,52.854,0,0,0,209.9,99.774,59.5,59.5,0,0,0,202.6,89.211a20.843,20.843,0,0,0,1.174-3.419l1.075-4.761c.479-2.131.931-4.266,1.389-6.4,10.543,11.259,16.806,25.284,16.806,40.5V187.51Zm2.474-13.155V171.3a23.135,23.135,0,0,0,4.591-3.164,21.044,21.044,0,0,0,7.01-12.976,19.963,19.963,0,0,1-8.329,11.26,20.439,20.439,0,0,1-3.271,1.729v-33.9a20.239,20.239,0,0,1,3.27,1.73,19.951,19.951,0,0,1,8.331,11.258,21.039,21.039,0,0,0-7.01-12.974,22.916,22.916,0,0,0-4.591-3.165v-5.176c10.587,3.451,18.223,13,18.223,24.214S236.107,170.9,225.521,174.355Z"/>
      <path d="M161.6,233.816l-.3-.156-.27.236a25.911,25.911,0,0,1-9.916,4.955,41.936,41.936,0,0,1-22.235,0,25.939,25.939,0,0,1-9.916-4.955l-.269-.235-.3.153a2.18,2.18,0,0,0-1.284,1.65,2.834,2.834,0,0,0,.642,1.887,10.571,10.571,0,0,0,2.628,2.358,27.383,27.383,0,0,0,6.193,2.965A38.417,38.417,0,0,0,140,244.62a38.52,38.52,0,0,0,13.428-1.948,27.235,27.235,0,0,0,6.192-2.966,10.54,10.54,0,0,0,2.628-2.359,2.837,2.837,0,0,0,.643-1.873A2.182,2.182,0,0,0,161.6,233.816ZM132.128,241.7c-2.354.56-10.658-2.463-12.1-4.4-.168-.224.262-.36.6-.351l11.265,4.1C132.154,241.256,132.4,241.636,132.128,241.7Zm27.842-4.4c-1.443,1.94-9.746,4.963-12.1,4.4-.271-.066-.029-.446.234-.655l11.266-4.1C159.706,236.938,160.136,237.075,159.97,237.3Z"/>
      <path d="M161.6,228.886l-.3-.152-.268.235a25.9,25.9,0,0,1-9.916,4.953,41.95,41.95,0,0,1-22.235,0,25.89,25.89,0,0,1-9.916-4.955l-.267-.234-.306.152a2.175,2.175,0,0,0-1.284,1.649,2.834,2.834,0,0,0,.642,1.887,10.575,10.575,0,0,0,2.628,2.359,27.388,27.388,0,0,0,6.193,2.966A38.477,38.477,0,0,0,140,239.691a38.427,38.427,0,0,0,13.428-1.949,27.3,27.3,0,0,0,6.193-2.965,10.525,10.525,0,0,0,2.628-2.36,2.84,2.84,0,0,0,.642-1.871A2.17,2.17,0,0,0,161.6,228.886Zm-29.473,7.888c-2.354.563-10.652-2.464-12.1-4.4-.168-.224.262-.359.6-.349l11.263,4.1C132.156,236.331,132.4,236.709,132.128,236.774Zm27.842-4.4c-1.447,1.94-9.749,4.968-12.1,4.4-.27-.065-.03-.443.236-.653l11.262-4.1C159.706,232.011,160.136,232.146,159.97,232.37Z"/>
      <path d="M161.6,223.959l-.3-.156-.27.237a25.935,25.935,0,0,1-9.916,4.953,41.95,41.95,0,0,1-22.235,0,25.928,25.928,0,0,1-9.916-4.953l-.269-.235-.3.154a2.173,2.173,0,0,0-1.284,1.648,2.839,2.839,0,0,0,.642,1.887,10.59,10.59,0,0,0,2.628,2.359,27.3,27.3,0,0,0,6.193,2.964A38.447,38.447,0,0,0,140,234.761a38.426,38.426,0,0,0,13.428-1.947,27.277,27.277,0,0,0,6.192-2.966,10.555,10.555,0,0,0,2.628-2.358,2.84,2.84,0,0,0,.643-1.874A2.18,2.18,0,0,0,161.6,223.959Zm-29.474,7.884c-2.355.561-10.656-2.462-12.1-4.4-.168-.224.262-.356.6-.35l11.263,4.1C132.154,231.4,132.4,231.777,132.128,231.843Zm27.842-4.4c-1.443,1.943-9.745,4.966-12.1,4.4-.27-.065-.027-.444.236-.654l11.266-4.1C159.706,227.081,160.136,227.214,159.97,227.438Z"/>
      <path d="M161.6,219.03l-.3-.154-.268.236a25.954,25.954,0,0,1-9.918,4.951,41.929,41.929,0,0,1-22.233,0,25.948,25.948,0,0,1-9.916-4.952l-.267-.235-.305.152a2.17,2.17,0,0,0-1.285,1.649,2.837,2.837,0,0,0,.643,1.888,10.566,10.566,0,0,0,2.628,2.357,27.292,27.292,0,0,0,6.192,2.965A38.445,38.445,0,0,0,140,229.83a38.435,38.435,0,0,0,13.426-1.946,27.288,27.288,0,0,0,6.194-2.965,10.551,10.551,0,0,0,2.628-2.358,2.848,2.848,0,0,0,.643-1.874A2.175,2.175,0,0,0,161.6,219.03Zm-29.473,7.886c-2.354.56-10.656-2.464-12.1-4.406-.168-.222.26-.357.6-.348l11.263,4.1C132.156,226.473,132.4,226.852,132.128,226.916Zm27.842-4.406c-1.443,1.942-9.746,4.966-12.1,4.406-.271-.064-.032-.443.234-.654l11.262-4.1C159.706,222.152,160.136,222.288,159.97,222.51Z"/>
      <path d="M188.979,108.794H91.019a15.517,15.517,0,0,0-15.473,15.471v60.949a15.518,15.518,0,0,0,15.473,15.474H188.98a15.517,15.517,0,0,0,15.474-15.474V124.265A15.517,15.517,0,0,0,188.979,108.794Zm9.876,76.42a9.889,9.889,0,0,1-9.876,9.879H91.019a9.89,9.89,0,0,1-9.877-9.879V124.265a9.889,9.889,0,0,1,9.877-9.877H188.98a9.888,9.888,0,0,1,9.876,9.877v60.949Z"/>
      <path d="M188.979,117.48H91.019a6.792,6.792,0,0,0-6.786,6.784v60.949A6.794,6.794,0,0,0,91.019,192H188.98a6.793,6.793,0,0,0,6.784-6.787V124.264A6.792,6.792,0,0,0,188.979,117.48Zm-65.492,32.768a14.868,14.868,0,1,1-29.737,0v-3a2.892,2.892,0,0,1,2.883-2.885H120.6a2.893,2.893,0,0,1,2.885,2.885v3Zm62.763,0a14.868,14.868,0,1,1-29.737,0v-3a2.893,2.893,0,0,1,2.884-2.885h23.971a2.893,2.893,0,0,1,2.883,2.885v3Z"/>
    </g>
  </g>
</svg>
