<svg xmlns="http://www.w3.org/2000/svg" viewBox="0 0 25.055 18" fill="#fff"><path d="M-159.071,336.7l-.3.34a14.264,14.264,0,0,1,5.339,2.721,17.442,17.442,0,0,0-6.449-2.056,17.566,17.566,0,0,0-4.334.044,1.579,1.579,0,0,0-.37.044,15.9,15.9,0,0,0-4.866,1.346c-.8.37-1.272.621-1.272.621a14.312,14.312,0,0,1,5.635-2.81l-.207-.251a10.626,10.626,0,0,0-6.02,2.248,28.654,28.654,0,0,0-3.091,12.5s1.8,3.106,6.537,3.254c0,0,.8-.961,1.435-1.775a6.7,6.7,0,0,1-3.757-2.529,6.993,6.993,0,0,0,.606.37.227.227,0,0,0,.089.059c.059.044.133.059.192.1a12.19,12.19,0,0,0,1.568.725,18.012,18.012,0,0,0,3.15.917,14.8,14.8,0,0,0,5.546.015,14.684,14.684,0,0,0,3.106-.917,11.937,11.937,0,0,0,2.47-1.272,6.747,6.747,0,0,1-3.875,2.559c.636.813,1.42,1.73,1.42,1.73a7.864,7.864,0,0,0,6.567-3.254,28.654,28.654,0,0,0-3.091-12.5,10.76,10.76,0,0,0-6.034-2.233Zm-7.425,12.764a2.3,2.3,0,0,1-2.189-2.381A2.288,2.288,0,0,1-166.5,344.7a2.269,2.269,0,0,1,2.189,2.381A2.288,2.288,0,0,1-166.5,349.463Zm7.824,0a2.3,2.3,0,0,1-2.189-2.381,2.288,2.288,0,0,1,2.189-2.381,2.278,2.278,0,0,1,2.189,2.381A2.288,2.288,0,0,1-158.671,349.463Z" transform="translate(175 -336.699)"/></svg>