<svg xmlns="http://www.w3.org/2000/svg" width="12.325" height="14.16" viewBox="0 0 12.325 14.16"><defs><style>.a{fill:#181b2c;}</style></defs><path class="a" d="M-477.1-45.571h3.144v1.731H-477.1Zm3.144-9.316a2.4,2.4,0,0,0,0-.308,3.441,3.441,0,0,0-1.572-2.78,3.441,3.441,0,0,0-1.572,2.78v8.424h3.144Zm1.447,9.316h3.144v1.731h-3.144Zm3.144-9.316a2.425,2.425,0,0,0,0-.308A3.525,3.525,0,0,0-470.937-58a3.441,3.441,0,0,0-1.572,2.78v8.457h3.144Zm1.447,9.316h3.143v1.731h-3.143Zm3.143-9.316v-.308a3.441,3.441,0,0,0-1.572-2.78,3.441,3.441,0,0,0-1.572,2.78v8.424h3.143Z" transform="translate(477.1 58)"/></svg>