<svg xmlns="http://www.w3.org/2000/svg" viewBox="0 0 22.172 18"><path d="M-144.328,48.108a9.412,9.412,0,0,1-2.278,2.35c.014.128.014.328.014.6a13.019,13.019,0,0,1-.541,3.66,13.43,13.43,0,0,1-1.623,3.5,13.6,13.6,0,0,1-2.592,2.962,11.824,11.824,0,0,1-3.631,2.051,13.231,13.231,0,0,1-4.543.769,12.649,12.649,0,0,1-6.978-2.036,8.659,8.659,0,0,0,1.1.057,8.885,8.885,0,0,0,5.639-1.937,4.447,4.447,0,0,1-2.649-.911,4.474,4.474,0,0,1-1.609-2.25,6.465,6.465,0,0,0,.854.071,4.927,4.927,0,0,0,1.2-.157,4.441,4.441,0,0,1-2.606-1.566,4.419,4.419,0,0,1-1.04-2.891v-.057a4.541,4.541,0,0,0,2.051.584,4.513,4.513,0,0,1-1.481-1.623,4.413,4.413,0,0,1-.555-2.165,4.426,4.426,0,0,1,.612-2.293,13.025,13.025,0,0,0,4.144,3.361,12.526,12.526,0,0,0,5.226,1.4,5.278,5.278,0,0,1-.114-1.04,4.4,4.4,0,0,1,1.324-3.218A4.4,4.4,0,0,1-151.191,46a4.388,4.388,0,0,1,3.318,1.438,9.257,9.257,0,0,0,2.891-1.1,4.408,4.408,0,0,1-1.994,2.506,11.143,11.143,0,0,0,2.649-.741Z" transform="translate(166.5 -46)"/></svg>