<svg xmlns="http://www.w3.org/2000/svg" viewBox="0 0 25.83 18"><path d="M33.851,24.3a29.318,29.318,0,0,0-.269-4.473,6.184,6.184,0,0,0-1.455-3.665,3.18,3.18,0,0,0-1.563-.647S27.6,15.3,21.94,15.3H19.946c-5.659,0-8.623.216-8.623.216a3.18,3.18,0,0,0-1.563.647,6.184,6.184,0,0,0-1.455,3.665A29.372,29.372,0,0,0,8.09,24.3h0a29.371,29.371,0,0,0,.269,4.473,6.184,6.184,0,0,0,1.455,3.665,3.18,3.18,0,0,0,1.563.647S14.342,33.3,20,33.3h1.994c5.659,0,8.623-.216,8.623-.216a3.18,3.18,0,0,0,1.563-.647,6.184,6.184,0,0,0,1.455-3.665A29.317,29.317,0,0,0,33.9,24.3ZM18.33,29.1V19.557L25.713,24.3Z" transform="translate(-8.078 -15.3)"/></svg>